<svg width="30" height="30" viewBox="0 0 30 30" fill="none" xmlns="http://www.w3.org/2000/svg">
<path d="M29.0412 29.0413L29.0413 29.0412C29.3862 28.6962 29.3863 28.1371 29.0412 27.7921C29.0412 27.7921 29.0412 27.7921 29.0412 27.7921L20.7205 19.4714C22.4258 17.4821 23.4667 14.9052 23.4667 12.0833C23.4666 5.80634 18.3604 0.7 12.0834 0.7C5.80634 0.7 0.7 5.80634 0.7 12.0834C0.7 18.3604 5.80634 23.4667 12.0834 23.4667C14.9053 23.4667 17.4821 22.4258 19.4714 20.7205L27.7921 29.0412C27.9645 29.2136 28.1911 29.3 28.4167 29.3C28.6424 29.3 28.8688 29.2136 29.0412 29.0413ZM12.0834 21.7C6.78143 21.7 2.4667 17.3858 2.4667 12.0834C2.4667 6.7809 6.78143 2.46665 12.0834 2.46665C17.3853 2.46665 21.7 6.78084 21.7 12.0834C21.7 17.3859 17.3853 21.7 12.0834 21.7Z" fill="#081A3D" stroke="#081A3D" stroke-width="0.6"/>
</svg>
