<svg width="201" height="58" viewBox="0 0 201 58" fill="none" xmlns="http://www.w3.org/2000/svg">
<path d="M162.6 8.9V13.8H175.3V41.6H181.5V13.8H194.3V8.9H162.6ZM152.2 22.3H135.2V8.9H129V41.6H135.2V27.2H152.2V41.6H158.4V8.9H152.2V22.3ZM103.4 36.2C103.1 36 102.9 35.4 102.9 34.9V27.2H122.3V22.3H102.9V15.7C102.9 15.2 102.9 14.6 103.4 14.1C103.9 13.7 104.5 13.6 105.1 13.6H122.7V8.7H101.7C100.4 8.7 98.9 8.8 97.8 10C97.1 10.8 96.7 12.1 96.7 13.4V36.6C96.7 37.9 96.8 39.4 97.9 40.4C99 41.4 100.2 41.4 101.6 41.4H122.8V36.6H105.3C104.6 36.6 103.8 36.6 103.4 36.2ZM60.9 13.8H73.7V41.6H79.9V13.8H92.7V8.9H60.9V13.8ZM11.4 28.9L16.8 15.6C17 15.1 17.3 14.2 17.7 14.2C18.1 14.2 18.5 15.1 18.6 15.6L23.9 28.9H11.4ZM17.7 8.5C14.8 8.5 13.5 9.4 12.3 12.2L0 41.5H6.5L9.8 33.2H25.5L28.9 41.5H35.4L23.1 12.2C21.9 9.4 20.5 8.5 17.7 8.5Z" fill="white"/>
<path d="M180.1 48.8998V54.1998C180.1 54.5998 180.1 55.2998 179.7 55.6998C179.3 56.1998 178.5 56.2998 178 56.2998C177.5 56.2998 176.8 56.1998 176.3 55.6998C175.9 55.2998 175.9 54.6998 175.9 54.1998V48.8998H174.3V54.3998C174.3 55.0998 174.4 55.8998 175 56.5998C175.9 57.4998 177.2 57.4998 178 57.4998C178.8 57.4998 180.1 57.4998 181 56.5998C181.6 55.8998 181.7 55.0998 181.7 54.3998V48.8998H180.1ZM161.1 54.2998H162.2C163.2 54.2998 163.6 53.7998 163.8 53.3998C164.1 52.7998 164.2 52.0998 164.2 51.4998C164.2 50.8998 164.2 50.1998 163.8 49.5998C163.3 48.8998 162.6 48.7998 162 48.7998H158C157.7 48.7998 157.3 48.7998 157 49.0998C156.7 49.3998 156.6 49.8998 156.6 50.1998V57.2998H158.2V50.6998C158.2 50.4998 158.2 50.3998 158.4 50.1998C158.5 50.0998 158.7 50.0998 158.8 50.0998H161.4C161.7 50.0998 162.1 50.0998 162.3 50.3998C162.5 50.5998 162.6 50.8998 162.6 51.5998C162.6 51.8998 162.6 52.4998 162.4 52.7998C162.2 53.0998 161.8 53.1998 161.5 53.1998H159.9C159.4 53.1998 159.2 53.3998 159.2 53.7998V53.9998C159.2 54.1998 159.4 54.5998 159.6 54.6998L162.4 57.4998H164.4L161.1 54.2998ZM144.8 57.3998H146.3V55.7998H144.8V57.3998ZM127.1 50.1998H130.4V57.3998H132V50.1998H135.3V48.8998H127V50.1998H127.1ZM116.1 55.1998C116.1 55.2998 116.1 55.3998 116 55.3998C115.9 55.3998 115.9 55.2998 115.8 55.1998L112.2 49.4998C112 49.0998 111.6 48.7998 110.9 48.7998C110.1 48.7998 109.6 49.1998 109.6 49.9998V57.3998H111.2V51.1998C111.2 50.9998 111.3 50.9998 111.4 50.9998C111.4 50.9998 111.5 50.9998 111.6 51.1998L115.2 56.8998C115.6 57.4998 116.1 57.5998 116.6 57.5998C117.3 57.5998 117.9 57.2998 117.9 56.3998V48.9998H116.4V55.1998H116.1ZM94.5 55.9998C94.4 55.8998 94.3999 55.7998 94.3999 55.6998V53.6998H99.3999V52.3998H94.3999V50.6998C94.3999 50.5998 94.4 50.3998 94.5 50.2998C94.6 50.1998 94.7999 50.1998 94.8999 50.1998H99.5V48.8998H94C93.7 48.8998 93.3 48.8998 93 49.1998C92.8 49.3998 92.7 49.6998 92.7 50.0998V56.0998C92.7 56.3998 92.7 56.7998 93 57.0998C93.3 57.3998 93.6 57.3998 94 57.3998H99.5V56.0998H95C94.8 56.0998 94.6 56.0998 94.5 55.9998ZM75.1 50.1998H78.3999V57.3998H80V50.1998H83.2999V48.8998H75V50.1998H75.1ZM64.2 57.3998H65.7V55.7998H64.2V57.3998ZM51.7 55.3998C51.6 55.5998 51.6 55.6998 51.5 55.6998C51.4 55.6998 51.2999 55.5998 51.2999 55.4998L49.7 49.6998C49.6 49.2998 49.4 48.7998 48.5 48.7998C47.5999 48.7998 47.3999 49.3998 47.2999 49.6998L45.7 55.4998C45.7 55.5998 45.5999 55.6998 45.5 55.6998C45.4 55.6998 45.2999 55.4998 45.2999 55.3998L43.6 48.7998H42L44 56.1998C44.2999 57.0998 44.7 57.3998 45.4 57.3998C46.4 57.3998 46.6 56.7998 46.7 56.2998L48.2 50.7998C48.2 50.6998 48.3 50.5998 48.4 50.5998C48.5 50.5998 48.5 50.6998 48.6 50.7998L50.1 56.2998C50.3 56.8998 50.5 57.3998 51.5 57.3998C52.5 57.3998 52.6999 56.7998 52.8999 56.1998L55 48.7998H53.3999L51.7 55.3998ZM30.7 55.3998C30.6 55.5998 30.6 55.6998 30.5 55.6998C30.4 55.6998 30.2999 55.5998 30.2999 55.4998L28.7 49.6998C28.6 49.2998 28.4 48.7998 27.5 48.7998C26.6 48.7998 26.4 49.3998 26.2999 49.6998L24.7 55.4998C24.7 55.5998 24.6 55.6998 24.5 55.6998C24.4 55.6998 24.2999 55.4998 24.2999 55.3998L22.6 48.7998H21L23 56.1998C23.2999 57.0998 23.7 57.3998 24.4 57.3998C25.4 57.3998 25.5999 56.7998 25.7999 56.2998L27.2999 50.7998C27.2999 50.6998 27.4 50.5998 27.5 50.5998C27.6 50.5998 27.6 50.6998 27.7 50.7998L29.2 56.2998C29.4 56.8998 29.6 57.3998 30.6 57.3998C31.6 57.3998 31.7999 56.7998 32 56.1998L34.1 48.7998H32.5L30.7 55.3998ZM9.69995 55.3998C9.69995 55.5998 9.59995 55.6998 9.49995 55.6998C9.39995 55.6998 9.29995 55.5998 9.29995 55.4998L7.69995 49.6998C7.59995 49.2998 7.39995 48.7998 6.49995 48.7998C5.59995 48.7998 5.39995 49.3998 5.29995 49.6998L3.69995 55.4998C3.69995 55.5998 3.59995 55.6998 3.49995 55.6998C3.39995 55.6998 3.29995 55.4998 3.29995 55.3998L1.59995 48.7998H0.199951L2.19995 56.1998C2.49995 57.0998 2.89995 57.3998 3.59995 57.3998C4.59995 57.3998 4.79995 56.7998 4.89995 56.2998L6.39995 50.7998C6.39995 50.6998 6.49995 50.5998 6.59995 50.5998C6.69995 50.5998 6.69995 50.6998 6.79995 50.7998L8.29995 56.2998C8.49995 56.8998 8.69995 57.3998 9.69995 57.3998C10.7 57.3998 10.9 56.7998 11.1 56.1998L13.2 48.7998H11.6L9.69995 55.3998Z" fill="white"/>
<path d="M57.4001 31.3001L50.5001 24.5001C50.2001 24.2001 49.8001 23.8001 49.2001 23.8001C48.6001 23.8001 48.2001 24.1001 47.9001 24.5001L40.9001 31.3001L38.1001 28.1001L46.5001 20.2001C47.2001 19.6001 47.9001 19.1001 49.0001 19.1001C50.1001 19.1001 50.8001 19.5001 51.5001 20.2001L59.9001 28.1001L57.4001 31.3001Z" fill="white"/>
<path d="M197.7 0.899902C196.2 0.899902 194.9 2.0999 194.9 3.5999C194.9 5.0999 196.1 6.2999 197.7 6.2999C199.3 6.2999 200.5 5.0999 200.5 3.5999C200.5 2.0999 199.3 0.899902 197.7 0.899902ZM197.7 6.7999C195.9 6.7999 194.4 5.3999 194.4 3.5999C194.4 1.7999 195.9 0.399902 197.7 0.399902C199.5 0.399902 201 1.7999 201 3.5999C201 5.3999 199.6 6.7999 197.7 6.7999Z" fill="white"/>
<path d="M198.4 2.7C198.4 2.6 198.4 2.5 198.3 2.4C198.3 2.3 198.2 2.2 198.1 2.2C198 2.2 197.9 2.1 197.8 2.1C197.7 2.1 197.6 2.1 197.4 2.1H196.9V3.6H197.4C197.6 3.6 197.7 3.6 197.8 3.6C197.9 3.6 198.1 3.4 198.1 3.4C198.2 3.3 198.3 3.1 198.3 3.1C198.3 3.1 198.4 2.8 198.4 2.7ZM199.6 5.5H198.9L197.6 3.9H197V5.5H196.4V1.5H197.5C197.7 1.5 197.9 1.5 198.1 1.5C198.3 1.5 198.4 1.6 198.6 1.7C198.7 1.8 198.9 1.9 198.9 2C199 2.1 199 2.3 199 2.5C199 2.8 198.9 3 198.8 3.2C198.6 3.4 198.4 3.5 198.2 3.6L199.6 5.5Z" fill="white"/>
</svg>
