<svg width="41" height="40" viewBox="0 0 41 40" fill="none" xmlns="http://www.w3.org/2000/svg">
<circle cx="20.5615" cy="20" r="20" fill="white" fill-opacity="0.6"/>
<path d="M20.5615 20C21.249 20 21.8378 19.755 22.3278 19.265C22.8169 18.7758 23.0615 18.1875 23.0615 17.5C23.0615 16.8125 22.8169 16.2238 22.3278 15.7337C21.8378 15.2446 21.249 15 20.5615 15C19.874 15 19.2857 15.2446 18.7965 15.7337C18.3065 16.2238 18.0615 16.8125 18.0615 17.5C18.0615 18.1875 18.3065 18.7758 18.7965 19.265C19.2857 19.755 19.874 20 20.5615 20ZM20.5615 32.5C17.2074 29.6458 14.7024 26.9946 13.0465 24.5462C11.3899 22.0988 10.5615 19.8333 10.5615 17.75C10.5615 14.625 11.5669 12.1354 13.5778 10.2812C15.5878 8.42708 17.9157 7.5 20.5615 7.5C23.2074 7.5 25.5353 8.42708 27.5453 10.2812C29.5561 12.1354 30.5615 14.625 30.5615 17.75C30.5615 19.8333 29.7336 22.0988 28.0778 24.5462C26.4211 26.9946 23.9157 29.6458 20.5615 32.5Z" fill="#283755"/>
</svg>
