<svg width="40" height="41" viewBox="0 0 40 41" fill="none" xmlns="http://www.w3.org/2000/svg">
<path d="M20 40.3799C8.9543 40.3799 0 31.4256 0 20.3799C0 9.33419 8.9543 0.379883 20 0.379883C31.0457 0.379883 40 9.33419 40 20.3799C40 31.4256 31.0457 40.3799 20 40.3799Z" fill="white"/>
<path d="M19.6 20.8799C20.1225 20.8799 20.57 20.6937 20.9424 20.3213C21.3141 19.9495 21.5 19.5024 21.5 18.9799C21.5 18.4574 21.3141 18.0099 20.9424 17.6375C20.57 17.2658 20.1225 17.0799 19.6 17.0799C19.0775 17.0799 18.6304 17.2658 18.2586 17.6375C17.8862 18.0099 17.7 18.4574 17.7 18.9799C17.7 19.5024 17.8862 19.9495 18.2586 20.3213C18.6304 20.6937 19.0775 20.8799 19.6 20.8799ZM19.6 30.3799C17.0508 28.2107 15.147 26.1958 13.8886 24.335C12.6295 22.4749 12 20.7532 12 19.1699C12 16.7949 12.7641 14.9028 14.2924 13.4936C15.82 12.0845 17.5892 11.3799 19.6 11.3799C21.6108 11.3799 23.3801 12.0845 24.9077 13.4936C26.4359 14.9028 27.2 16.7949 27.2 19.1699C27.2 20.7532 26.5708 22.4749 25.3124 24.335C24.0533 26.1958 22.1492 28.2107 19.6 30.3799Z" fill="#283755"/>
</svg>
