<svg width="41" height="40" viewBox="0 0 41 40" fill="none" xmlns="http://www.w3.org/2000/svg">
<path fill-rule="evenodd" clip-rule="evenodd" d="M20.5615 40C9.51583 40 0.561523 31.0457 0.561523 20C0.561523 8.9543 9.51583 0 20.5615 0C31.6072 0 40.5615 8.9543 40.5615 20C40.5615 31.0457 31.6072 40 20.5615 40ZM20.8402 18.8775C22.4778 18.8775 30.4402 14.4 30.4402 14.4L30.453 13.6C30.453 12.7168 29.7362 12 28.8506 12H12.8298C11.945 12 11.2282 12.7168 11.2282 13.6V14.3128C11.2282 14.3128 19.2778 18.8775 20.8402 18.8775ZM11.241 16.8C11.2402 16.8 19.2778 21.0775 20.8402 21.0775C22.553 21.0775 30.4402 16.8 30.4402 16.8L30.453 26.4C30.453 27.2832 29.7362 28 28.8506 28H12.8298C11.9458 28 11.2282 27.2832 11.2282 26.4L11.241 16.8Z" fill="white" fill-opacity="0.6"/>
</svg>
