<svg width="41" height="40" viewBox="0 0 41 40" fill="none" xmlns="http://www.w3.org/2000/svg">
<path fill-rule="evenodd" clip-rule="evenodd" d="M0.561523 20C0.561523 31.0457 9.51583 40 20.5615 40C31.6072 40 40.5615 31.0457 40.5615 20C40.5615 8.9543 31.6072 0 20.5615 0C9.51583 0 0.561523 8.9543 0.561523 20ZM16.8949 29.1667L17.2351 24.0685L17.2349 24.0683L26.509 15.6992C26.916 15.3379 26.4201 15.1618 25.8798 15.4894L14.4343 22.7103L9.49042 21.1672C8.42277 20.8403 8.41511 20.1067 9.73012 19.5792L28.9951 12.1507C29.875 11.7512 30.7243 12.362 30.3884 13.7087L27.1075 29.1693C26.8784 30.2679 26.2146 30.5307 25.2949 30.0232L20.2971 26.3308L17.8949 28.6667C17.8873 28.674 17.8797 28.6814 17.8722 28.6887C17.6036 28.9502 17.3813 29.1667 16.8949 29.1667Z" fill="white" fill-opacity="0.6"/>
</svg>
