<svg width="40" height="41" viewBox="0 0 40 41" fill="none" xmlns="http://www.w3.org/2000/svg">
<path fill-rule="evenodd" clip-rule="evenodd" d="M0 20.3799C0 31.4256 8.9543 40.3799 20 40.3799C31.0457 40.3799 40 31.4256 40 20.3799C40 9.33419 31.0457 0.379883 20 0.379883C8.9543 0.379883 0 9.33419 0 20.3799ZM32.5518 19.6145C32.5492 26.1701 27.2162 31.5043 20.6592 31.507H20.6543C18.6639 31.5063 16.7082 31.0069 14.9711 30.0594L8.66667 31.7132L10.3538 25.5506C9.31311 23.747 8.76548 21.7011 8.76637 19.6051C8.76898 13.048 14.104 7.71322 20.6591 7.71322C23.8405 7.71459 26.8265 8.9531 29.0718 11.2011C31.3172 13.4489 32.553 16.4368 32.5518 19.6145Z" fill="white"/>
<path fill-rule="evenodd" clip-rule="evenodd" d="M11.5212 28.8876L15.2623 27.9062L15.6233 28.1204C17.1409 29.021 18.8806 29.4976 20.6543 29.4983H20.6584C26.1065 29.4983 30.5407 25.0639 30.5429 19.6135C30.5439 16.9723 29.5168 14.4889 27.6505 12.6205C25.7843 10.7521 23.3024 9.7226 20.6622 9.72168C15.2099 9.72168 10.7756 14.1556 10.7734 19.6055C10.7727 21.4733 11.2953 23.2923 12.2847 24.866L12.5198 25.24L11.5212 28.8876ZM26.2428 22.1747C26.4501 22.2749 26.59 22.3425 26.6498 22.4423C26.724 22.5662 26.724 23.1611 26.4765 23.8554C26.2288 24.5495 25.0417 25.183 24.4707 25.2683C23.9588 25.3448 23.3109 25.3767 22.5991 25.1505C22.1675 25.0136 21.614 24.8307 20.905 24.5246C18.1193 23.3217 16.2366 20.6216 15.8808 20.1113C15.8559 20.0756 15.8385 20.0506 15.8288 20.0376L15.8264 20.0344C15.6691 19.8246 14.6154 18.4187 14.6154 16.9636C14.6154 15.5948 15.2878 14.8774 15.5972 14.5472C15.6184 14.5245 15.6379 14.5037 15.6554 14.4847C15.9278 14.1872 16.2497 14.1128 16.4478 14.1128C16.6459 14.1128 16.8442 14.1146 17.0174 14.1233C17.0387 14.1244 17.0609 14.1242 17.0839 14.1241C17.2571 14.1231 17.473 14.1218 17.6859 14.6334C17.7679 14.8303 17.8878 15.1221 18.0142 15.43C18.2699 16.0525 18.5524 16.7403 18.6021 16.8398C18.6764 16.9886 18.7259 17.162 18.6269 17.3604C18.612 17.3902 18.5983 17.4183 18.5851 17.4451C18.5107 17.597 18.456 17.7087 18.3298 17.8561C18.2801 17.9141 18.2288 17.9766 18.1775 18.0391C18.0752 18.1636 17.973 18.2881 17.884 18.3768C17.7352 18.5249 17.5804 18.6857 17.7537 18.9832C17.9271 19.2807 18.5234 20.2537 19.4068 21.0417C20.3564 21.8887 21.1818 22.2467 21.6001 22.4282C21.6818 22.4636 21.748 22.4923 21.7965 22.5166C22.0936 22.6654 22.2669 22.6405 22.4403 22.4423C22.6136 22.2439 23.1831 21.5745 23.3812 21.2771C23.5792 20.9797 23.7774 21.0292 24.0497 21.1284C24.3222 21.2276 25.7831 21.9464 26.0803 22.0951C26.1383 22.1242 26.1925 22.1504 26.2428 22.1747Z" fill="white"/>
</svg>
