<svg width="41" height="40" viewBox="0 0 41 40" fill="none" xmlns="http://www.w3.org/2000/svg">
<path fill-rule="evenodd" clip-rule="evenodd" d="M20.5615 0C9.51583 0 0.561523 8.9543 0.561523 20C0.561523 31.0457 9.51583 40 20.5615 40C31.6072 40 40.5615 31.0457 40.5615 20C40.5615 8.9543 31.6072 0 20.5615 0ZM28.8962 13.1242C29.8141 13.3761 30.537 14.1183 30.7823 15.0608C31.2282 16.769 31.2282 20.3331 31.2282 20.3331C31.2282 20.3331 31.2282 23.8971 30.7823 25.6054C30.537 26.5479 29.8141 27.2901 28.8962 27.5421C27.2326 27.9998 20.5615 27.9998 20.5615 27.9998C20.5615 27.9998 13.8903 27.9998 12.2267 27.5421C11.3088 27.2901 10.5858 26.5479 10.3405 25.6054C9.89482 23.8971 9.89482 20.3331 9.89482 20.3331C9.89482 20.3331 9.89482 16.769 10.3405 15.0608C10.5858 14.1183 11.3088 13.3761 12.2267 13.1242C13.8903 12.6664 20.5615 12.6664 20.5615 12.6664C20.5615 12.6664 27.2326 12.6664 28.8962 13.1242Z" fill="white" fill-opacity="0.6"/>
<path d="M18.5615 24.0002V17.3335L23.8949 20.667L18.5615 24.0002Z" fill="white" fill-opacity="0.6"/>
</svg>
