<svg width="41" height="40" viewBox="0 0 41 40" fill="none" xmlns="http://www.w3.org/2000/svg">
<path fill-rule="evenodd" clip-rule="evenodd" d="M0.987305 20C0.987305 31.0457 9.94161 40 20.9873 40C32.033 40 40.9873 31.0457 40.9873 20C40.9873 8.9543 32.033 0 20.9873 0C9.94161 0 0.987305 8.9543 0.987305 20ZM17.3206 29.1667L17.6609 24.0685L17.6606 24.0683L26.9347 15.6992C27.3418 15.3379 26.8459 15.1618 26.3055 15.4894L14.86 22.7103L9.9162 21.1672C8.84855 20.8403 8.84089 20.1067 10.1559 19.5792L29.4209 12.1507C30.3008 11.7512 31.15 12.362 30.8141 13.7087L27.5333 29.1693C27.3042 30.2679 26.6404 30.5307 25.7206 30.0232L20.7229 26.3308L18.3206 28.6667C18.3131 28.674 18.3055 28.6814 18.298 28.6887C18.0294 28.9502 17.8071 29.1667 17.3206 29.1667Z" fill="white"/>
</svg>
