<svg width="41" height="40" viewBox="0 0 41 40" fill="none" xmlns="http://www.w3.org/2000/svg">
<path fill-rule="evenodd" clip-rule="evenodd" d="M0.987305 20C0.987305 31.0457 9.94161 40 20.9873 40C32.033 40 40.9873 31.0457 40.9873 20C40.9873 8.9543 32.033 0 20.9873 0C9.94161 0 0.987305 8.9543 0.987305 20ZM33.5391 19.2346C33.5365 25.7902 28.2035 31.1244 21.6465 31.1271H21.6416C19.6512 31.1264 17.6955 30.627 15.9584 29.6795L9.65397 31.3333L11.3412 25.1707C10.3004 23.3671 9.75279 21.3212 9.75368 19.2252C9.75629 12.6681 15.0913 7.33333 21.6464 7.33333C24.8278 7.33471 27.8138 8.57322 30.0591 10.8212C32.3045 13.069 33.5404 16.0569 33.5391 19.2346Z" fill="white"/>
<path fill-rule="evenodd" clip-rule="evenodd" d="M12.5094 28.508L16.2505 27.5266L16.6115 27.7408C18.1291 28.6414 19.8688 29.1179 21.6425 29.1186H21.6465C27.0947 29.1186 31.5289 24.6843 31.5311 19.2339C31.5321 16.5927 30.5049 14.1092 28.6387 12.2408C26.7724 10.3724 24.2906 9.34296 21.6504 9.34204C16.1981 9.34204 11.7638 13.7759 11.7616 19.2259C11.7608 21.0937 12.2834 22.9126 13.2729 24.4864L13.5079 24.8604L12.5094 28.508ZM27.231 21.7951C27.4382 21.8952 27.5782 21.9629 27.6379 22.0626C27.7122 22.1865 27.7122 22.7815 27.4647 23.4757C27.217 24.1698 26.0298 24.8033 25.4589 24.8886C24.9469 24.9652 24.2991 24.9971 23.5872 24.7709C23.1556 24.6339 22.6022 24.4511 21.8932 24.1449C19.1074 22.942 17.2248 20.242 16.869 19.7317C16.8441 19.696 16.8266 19.671 16.8169 19.658L16.8145 19.6548C16.6572 19.4449 15.6035 18.039 15.6035 16.584C15.6035 15.2152 16.2759 14.4978 16.5854 14.1675C16.6066 14.1449 16.6261 14.1241 16.6436 14.105C16.9159 13.8075 17.2379 13.7331 17.436 13.7331C17.6341 13.7331 17.8324 13.735 18.0055 13.7437C18.0269 13.7447 18.0491 13.7446 18.0721 13.7445C18.2452 13.7435 18.4611 13.7422 18.6741 14.2538C18.756 14.4506 18.8759 14.7425 19.0024 15.0503C19.2581 15.6728 19.5406 16.3606 19.5903 16.4602C19.6646 16.6089 19.7141 16.7824 19.6151 16.9808C19.6002 17.0106 19.5864 17.0386 19.5733 17.0655C19.4989 17.2173 19.4442 17.3291 19.3179 17.4765C19.2683 17.5345 19.2169 17.597 19.1656 17.6594C19.0634 17.7839 18.9612 17.9084 18.8722 17.9971C18.7234 18.1453 18.5685 18.3061 18.7419 18.6036C18.9152 18.9011 19.5116 19.8741 20.395 20.6621C21.3446 21.5091 22.1699 21.8671 22.5883 22.0485C22.67 22.084 22.7361 22.1127 22.7847 22.137C23.0817 22.2858 23.2551 22.2609 23.4284 22.0626C23.6018 21.8643 24.1713 21.1949 24.3693 20.8974C24.5674 20.6001 24.7656 20.6496 25.0379 20.7487C25.3103 20.848 26.7713 21.5668 27.0684 21.7155C27.1265 21.7446 27.1807 21.7708 27.231 21.7951Z" fill="white"/>
</svg>
