<svg width="200" height="58" viewBox="0 0 200 58" fill="none" xmlns="http://www.w3.org/2000/svg">
<path d="M161.791 8.49091V13.386H174.428V41.1581H180.597V13.386H193.333V8.49091H161.791ZM151.443 21.8775H134.527V8.49091H128.358V41.1581H134.527V26.7725H151.443V41.1581H157.612V8.49091H151.443V21.8775ZM102.885 35.7635C102.587 35.5637 102.388 34.9643 102.388 34.4648V26.7725H121.691V21.8775H102.388V15.2841C102.388 14.7846 102.388 14.1852 102.885 13.6857C103.383 13.2861 103.98 13.1862 104.577 13.1862H122.089V8.29111H101.194C99.9004 8.29111 98.4078 8.39101 97.3133 9.5898C96.6168 10.389 96.2188 11.6877 96.2188 12.9864V36.1631C96.2188 37.4618 96.3183 38.9603 97.4128 39.9593C98.5073 40.9583 99.7014 40.9583 101.094 40.9583H122.189V36.1631H104.776C104.079 36.1631 103.283 36.1631 102.885 35.7635ZM60.5969 13.386H73.3332V41.1581H79.5024V13.386H92.2387V8.49091H60.5969V13.386ZM11.3433 28.4708L16.7164 15.1842C16.9154 14.6847 17.2139 13.7856 17.6119 13.7856C18.0099 13.7856 18.4079 14.6847 18.5074 15.1842L23.7811 28.4708H11.3433ZM17.6119 8.09131C14.7264 8.09131 13.4328 8.99041 12.2388 11.7876L0 41.0582H6.46765L9.75123 32.7665H25.3731L28.7562 41.0582H35.2238L22.985 11.7876C21.791 8.99041 20.398 8.09131 17.6119 8.09131Z" fill="#283755"/>
<path d="M179.206 48.4515V53.7461C179.206 54.1457 179.206 54.845 178.808 55.2446C178.41 55.7441 177.614 55.844 177.116 55.844C176.619 55.844 175.922 55.7441 175.425 55.2446C175.027 54.845 175.027 54.2456 175.027 53.7461V48.4515H173.435V53.9459C173.435 54.6452 173.534 55.4444 174.131 56.1437C175.027 57.0428 176.32 57.0428 177.116 57.0428C177.912 57.0428 179.206 57.0428 180.101 56.1437C180.698 55.4444 180.798 54.6452 180.798 53.9459V48.4515H179.206ZM160.3 53.846H161.395C162.39 53.846 162.788 53.3465 162.987 52.9469C163.285 52.3475 163.385 51.6482 163.385 51.0489C163.385 50.4495 163.385 49.7502 162.987 49.1508C162.489 48.4515 161.793 48.3516 161.196 48.3516H157.216C156.917 48.3516 156.519 48.3516 156.221 48.6513C155.922 48.951 155.823 49.4505 155.823 49.7502V56.843H157.415V50.2497C157.415 50.0499 157.415 49.95 157.614 49.7502C157.713 49.6503 157.912 49.6503 158.012 49.6503H160.599C160.897 49.6503 161.295 49.6503 161.494 49.95C161.693 50.1498 161.793 50.4495 161.793 51.1488C161.793 51.4484 161.793 52.0478 161.594 52.3475C161.395 52.6472 160.997 52.7471 160.698 52.7471H159.106C158.609 52.7471 158.41 52.9469 158.41 53.3465V53.5463C158.41 53.7461 158.609 54.1457 158.808 54.2456L161.594 57.0428H163.584L160.3 53.846ZM144.082 56.9429H145.574V55.3445H144.082V56.9429ZM126.47 49.7502H129.753V56.9429H131.345V49.7502H134.629V48.4515H126.37V49.7502H126.47ZM115.524 54.7451C115.524 54.845 115.524 54.9449 115.425 54.9449C115.325 54.9449 115.325 54.845 115.226 54.7451L111.644 49.0509C111.445 48.6513 111.047 48.3516 110.35 48.3516C109.554 48.3516 109.057 48.7512 109.057 49.5504V56.9429H110.649V50.7492C110.649 50.5494 110.748 50.5494 110.848 50.5494C110.848 50.5494 110.947 50.5494 111.047 50.7492L114.629 56.4434C115.027 57.0428 115.524 57.1427 116.022 57.1427C116.718 57.1427 117.315 56.843 117.315 55.9439V48.5514H115.823V54.7451H115.524ZM94.0319 55.5443C93.9324 55.4444 93.9324 55.3445 93.9324 55.2446V53.2466H98.9075V51.9479H93.9324V50.2497C93.9324 50.1498 93.9324 49.95 94.0319 49.8501C94.1314 49.7502 94.3304 49.7502 94.4299 49.7502H99.007V48.4515H93.5343C93.2358 48.4515 92.8378 48.4515 92.5393 48.7512C92.3403 48.951 92.2408 49.2507 92.2408 49.6503V55.6442C92.2408 55.9439 92.2408 56.3435 92.5393 56.6432C92.8378 56.9429 93.1363 56.9429 93.5343 56.9429H99.007V55.6442H94.5294C94.3304 55.6442 94.1314 55.6442 94.0319 55.5443ZM74.7284 49.7502H78.012V56.9429H79.604V49.7502H82.8876V48.4515H74.6289V49.7502H74.7284ZM63.8827 56.9429H65.3752V55.3445H63.8827V56.9429ZM51.4449 54.9449C51.3454 55.1447 51.3454 55.2446 51.2459 55.2446C51.1464 55.2446 51.0469 55.1447 51.0469 55.0448L49.4548 49.2507C49.3553 48.8511 49.1563 48.3516 48.2608 48.3516C47.3653 48.3516 47.1663 48.951 47.0668 49.2507L45.4747 55.0448C45.4747 55.1447 45.3752 55.2446 45.2757 55.2446C45.1762 55.2446 45.0767 55.0448 45.0767 54.9449L43.3852 48.3516H41.7931L43.7832 55.7441C44.0817 56.6432 44.4797 56.9429 45.1762 56.9429C46.1712 56.9429 46.3702 56.3435 46.4697 55.844L47.9623 50.3496C47.9623 50.2497 48.0618 50.1498 48.1613 50.1498C48.2608 50.1498 48.2608 50.2497 48.3603 50.3496L49.8528 55.844C50.0518 56.4434 50.2508 56.9429 51.2459 56.9429C52.2409 56.9429 52.4399 56.3435 52.6389 55.7441L54.7284 48.3516H53.1364L51.4449 54.9449ZM30.5494 54.9449C30.4499 55.1447 30.4499 55.2446 30.3504 55.2446C30.2509 55.2446 30.1514 55.1447 30.1514 55.0448L28.5593 49.2507C28.4598 48.8511 28.2608 48.3516 27.3653 48.3516C26.4698 48.3516 26.2708 48.951 26.1713 49.2507L24.5792 55.0448C24.5792 55.1447 24.4797 55.2446 24.3802 55.2446C24.2807 55.2446 24.1812 55.0448 24.1812 54.9449L22.4897 48.3516H20.8977L22.8877 55.7441C23.1862 56.6432 23.5842 56.9429 24.2807 56.9429C25.2758 56.9429 25.4748 56.3435 25.6738 55.844L27.1663 50.3496C27.1663 50.2497 27.2658 50.1498 27.3653 50.1498C27.4648 50.1498 27.4648 50.2497 27.5643 50.3496L29.0568 55.844C29.2558 56.4434 29.4549 56.9429 30.4499 56.9429C31.4449 56.9429 31.6439 56.3435 31.8429 55.7441L33.9325 48.3516H32.3404L30.5494 54.9449ZM9.65389 54.9449C9.65389 55.1447 9.55439 55.2446 9.45489 55.2446C9.35538 55.2446 9.25588 55.1447 9.25588 55.0448L7.66385 49.2507C7.56434 48.8511 7.36534 48.3516 6.46982 48.3516C5.5743 48.3516 5.37529 48.951 5.27579 49.2507L3.68375 55.0448C3.68375 55.1447 3.58425 55.2446 3.48475 55.2446C3.38525 55.2446 3.28574 55.0448 3.28574 54.9449L1.5942 48.3516H0.201172L2.19122 55.7441C2.48973 56.6432 2.88773 56.9429 3.58425 56.9429C4.57927 56.9429 4.77828 56.3435 4.87778 55.844L6.37032 50.3496C6.37032 50.2497 6.46982 50.1498 6.56932 50.1498C6.66882 50.1498 6.66882 50.2497 6.76832 50.3496L8.26086 55.844C8.45986 56.4434 8.65887 56.9429 9.65389 56.9429C10.6489 56.9429 10.8479 56.3435 11.0469 55.7441L13.1365 48.3516H11.5444L9.65389 54.9449Z" fill="#20C2FF"/>
<path d="M57.1161 30.8689L50.2504 24.0757C49.9519 23.776 49.5539 23.3764 48.9569 23.3764C48.3599 23.3764 47.9618 23.6761 47.6633 24.0757L40.6982 30.8689L37.9121 27.6721L46.2703 19.78C46.9668 19.1806 47.6633 18.6812 48.7579 18.6812C49.8524 18.6812 50.5489 19.0807 51.2454 19.78L59.6036 27.6721L57.1161 30.8689Z" fill="#20C2FF"/>
<path d="M196.717 0.499498C195.225 0.499498 193.931 1.69829 193.931 3.19679C193.931 4.69528 195.125 5.89408 196.717 5.89408C198.309 5.89408 199.503 4.69528 199.503 3.19679C199.503 1.69829 198.309 0.499498 196.717 0.499498ZM196.717 6.39358C194.926 6.39358 193.434 4.99498 193.434 3.19679C193.434 1.39859 194.926 0 196.717 0C198.508 0 200.001 1.39859 200.001 3.19679C200.001 4.99498 198.608 6.39358 196.717 6.39358Z" fill="white"/>
<path d="M197.41 2.29792C197.41 2.19802 197.41 2.09812 197.31 1.99822C197.31 1.89832 197.211 1.79842 197.111 1.79842C197.012 1.79842 196.912 1.69852 196.813 1.69852C196.713 1.69852 196.614 1.69852 196.415 1.69852H195.917V3.19701H196.415C196.614 3.19701 196.713 3.19701 196.813 3.19701C196.912 3.19701 197.111 2.99721 197.111 2.99721C197.211 2.89731 197.31 2.69752 197.31 2.69752C197.31 2.69752 197.41 2.39782 197.41 2.29792ZM198.604 5.09511H197.907L196.614 3.49671H196.017V5.09511H195.42V1.09912H196.514C196.713 1.09912 196.912 1.09912 197.111 1.09912C197.31 1.09912 197.41 1.19902 197.609 1.29892C197.708 1.39882 197.907 1.49872 197.907 1.59862C198.007 1.69852 198.007 1.89832 198.007 2.09812C198.007 2.39782 197.907 2.59762 197.808 2.79742C197.609 2.99721 197.41 3.09711 197.211 3.19701L198.604 5.09511Z" fill="white"/>
</svg>
