<svg width="11" height="18" viewBox="0 0 11 18" fill="none" xmlns="http://www.w3.org/2000/svg">
<path d="M1.12872 0.348553C1.23582 0.238067 1.36306 0.150408 1.50314 0.0905973C1.64322 0.0307868 1.79339 0 1.94505 0C2.09671 0 2.24688 0.0307868 2.38696 0.0905973C2.52704 0.150408 2.65427 0.238067 2.76138 0.348553L10.5188 8.33074C10.6043 8.41854 10.6722 8.52284 10.7185 8.63766C10.7647 8.75248 10.7886 8.87557 10.7886 8.99987C10.7886 9.12418 10.7647 9.24726 10.7185 9.36208C10.6722 9.4769 10.6043 9.5812 10.5188 9.66901L2.76138 17.6512C2.3094 18.1163 1.5807 18.1163 1.12872 17.6512C0.676741 17.1861 0.676741 16.4363 1.12872 15.9712L7.89919 9.00462L1.1195 2.02851C0.676741 1.56344 0.676741 0.813627 1.12872 0.348553Z" fill="white"/>
</svg>
