<svg width="40" height="41" viewBox="0 0 40 41" fill="none" xmlns="http://www.w3.org/2000/svg">
<path d="M20 40.3799C8.9543 40.3799 0 31.4256 0 20.3799C0 9.33419 8.9543 0.379883 20 0.379883C31.0457 0.379883 40 9.33419 40 20.3799C40 31.4256 31.0457 40.3799 20 40.3799Z" fill="white"/>
<path d="M20.28 19.2574C21.9176 19.2574 29.88 14.7799 29.88 14.7799L29.8928 13.9799C29.8928 13.0967 29.176 12.3799 28.2904 12.3799H12.2696C11.3848 12.3799 10.668 13.0967 10.668 13.9799V14.6927C10.668 14.6927 18.7176 19.2574 20.28 19.2574Z" fill="#283755"/>
<path d="M20.28 21.4572C18.7176 21.4572 10.68 17.1797 10.6808 17.1797L10.668 26.7797C10.668 27.6629 11.3856 28.3797 12.2696 28.3797H28.2904C29.176 28.3797 29.8928 27.6629 29.8928 26.7797L29.88 17.1797C29.88 17.1797 21.9928 21.4572 20.28 21.4572Z" fill="#283755"/>
</svg>
