<svg width="41" height="40" viewBox="0 0 41 40" fill="none" xmlns="http://www.w3.org/2000/svg">
<path fill-rule="evenodd" clip-rule="evenodd" d="M20.5615 0C9.51583 0 0.561523 8.9543 0.561523 20C0.561523 31.0457 9.51583 40 20.5615 40C31.6072 40 40.5615 31.0457 40.5615 20C40.5615 8.9543 31.6072 0 20.5615 0ZM14.5513 10C14.6105 10.0469 14.6574 10.0469 14.7044 10.0408C14.9472 10.0204 15.1554 10.0796 15.2901 10.302C15.3139 10.3406 15.3376 10.3791 15.3614 10.4176C15.6399 10.869 15.9189 11.3211 16.184 11.7837C16.3759 12.1181 16.559 12.4579 16.7423 12.7981C16.8767 13.0475 17.0112 13.2972 17.1493 13.545C17.2028 13.6454 17.2696 13.74 17.3365 13.8346C17.3742 13.8881 17.4119 13.9415 17.4473 13.996C17.5325 14.1315 17.614 14.2707 17.6935 14.4065L17.7065 14.4286C17.8779 14.7531 17.8697 15.0797 17.6146 15.3389C17.3461 15.6134 17.0575 15.8735 16.7694 16.1331C16.6678 16.2247 16.5662 16.3162 16.4656 16.4083C16.3406 16.523 16.2137 16.636 16.0869 16.7488C15.8866 16.927 15.6866 17.105 15.4942 17.2899C15.2493 17.5267 15.186 17.8226 15.3513 18.1348C15.3666 18.1635 15.3819 18.1921 15.3972 18.2208C15.6369 18.6697 15.8763 19.118 16.1391 19.5573C17.1759 21.2859 18.5004 22.7553 20.1739 23.888C20.8188 24.3268 21.4902 24.7288 22.1678 25.1125C22.8066 25.4737 23.0555 25.4125 23.5515 24.8594C23.8134 24.5686 24.07 24.275 24.327 23.9811C24.5226 23.7575 24.7184 23.5336 24.9168 23.3104C25.027 23.1859 25.1597 23.0757 25.2882 22.9696C25.5495 22.7492 25.8352 22.7247 26.1352 22.8757C26.154 22.8849 26.1731 22.8939 26.1923 22.9029C26.2584 22.9339 26.3252 22.9652 26.3821 23.0063C26.9143 23.3871 27.4885 23.693 28.0619 23.9985C28.3461 24.1499 28.6301 24.3012 28.9087 24.4615C29.1959 24.6265 29.4782 24.799 29.7597 24.9711C29.9203 25.0692 30.0806 25.1672 30.2414 25.2635C30.4802 25.4043 30.5761 25.6105 30.5598 25.8941C30.5149 26.6921 30.3822 27.4758 29.9189 28.1493C29.725 28.4289 29.4495 28.6738 29.172 28.8717C28.4026 29.4105 27.5434 29.7432 26.6291 29.9473C25.7984 30.133 24.9699 30.0656 24.1739 29.8167C22.6372 29.3432 21.1229 28.8003 19.729 27.9779C18.4636 27.2289 17.3126 26.3248 16.2473 25.3145C14.8983 24.0309 13.6942 22.6308 12.7207 21.0369C12.086 20.0022 11.6329 18.8879 11.2227 17.7512C10.9737 17.0654 10.7288 16.3858 10.6186 15.6593C10.4921 14.8368 10.5798 14.045 10.8431 13.2654C11.0798 12.5613 11.3758 11.8878 11.8227 11.2857C12.1737 10.8184 12.6125 10.4755 13.1799 10.3225C13.5004 10.2376 13.823 10.165 14.1455 10.0923C14.2809 10.0619 14.4162 10.0314 14.5513 10Z" fill="white" fill-opacity="0.6"/>
</svg>
