<svg width="40" height="41" viewBox="0 0 40 41" fill="none" xmlns="http://www.w3.org/2000/svg">
<path d="M20 40.3799C8.9543 40.3799 0 31.4256 0 20.3799C0 9.33419 8.9543 0.379883 20 0.379883C31.0457 0.379883 40 9.33419 40 20.3799C40 31.4256 31.0457 40.3799 20 40.3799Z" fill="white"/>
<path d="M14.1429 10.4207C14.0959 10.4268 14.049 10.4268 13.9898 10.3799C13.5326 10.486 13.0735 10.5819 12.6183 10.7023C12.051 10.8554 11.6122 11.1983 11.2612 11.6656C10.8142 12.2677 10.5183 12.9412 10.2816 13.6452C10.0183 14.4248 9.93054 15.2167 10.0571 16.0392C10.1673 16.7657 10.4122 17.4453 10.6612 18.131C11.0714 19.2678 11.5244 20.3821 12.1592 21.4168C13.1326 23.0107 14.3367 24.4107 15.6857 25.6944C16.7511 26.7047 17.9021 27.6087 19.1674 28.3577C20.5613 29.1802 22.0756 29.7231 23.6124 30.1965C24.4083 30.4455 25.2369 30.5129 26.0676 30.3272C26.9819 30.1231 27.8411 29.7904 28.6105 29.2516C28.888 29.0537 29.1635 28.8088 29.3574 28.5292C29.8207 27.8557 29.9533 27.072 29.9982 26.274C30.0146 25.9904 29.9186 25.7842 29.6799 25.6434C29.237 25.3781 28.7982 25.1005 28.3472 24.8414C27.5064 24.3577 26.6165 23.9556 25.8206 23.3862C25.7471 23.3332 25.6573 23.2964 25.5737 23.2556C25.2737 23.1046 24.9879 23.1291 24.7267 23.3495C24.5981 23.4556 24.4655 23.5658 24.3553 23.6903C23.8961 24.2066 23.4512 24.7271 22.9899 25.2393C22.494 25.7924 22.245 25.8536 21.6063 25.4924C20.9287 25.1087 20.2572 24.7067 19.6123 24.2679C17.9388 23.1352 16.6143 21.6658 15.5776 19.9372C15.298 19.4698 15.0449 18.9923 14.7898 18.5147C14.6245 18.2025 14.6878 17.9065 14.9327 17.6698C15.247 17.3678 15.5817 17.0841 15.9041 16.7882C16.2898 16.4351 16.6898 16.0902 17.0531 15.7187C17.3082 15.4596 17.3164 15.133 17.145 14.8085C17.0613 14.6657 16.9756 14.5187 16.8858 14.3759C16.7878 14.2248 16.6715 14.082 16.5878 13.9248C16.2613 13.3391 15.9551 12.7432 15.6225 12.1636C15.3347 11.6615 15.0306 11.1717 14.7286 10.6819C14.5939 10.4595 14.3857 10.4003 14.1429 10.4207Z" fill="#283755"/>
</svg>
