<svg width="40" height="41" viewBox="0 0 40 41" fill="none" xmlns="http://www.w3.org/2000/svg">
<path fill-rule="evenodd" clip-rule="evenodd" d="M0 20.3799C0 31.4256 8.9543 40.3799 20 40.3799C31.0457 40.3799 40 31.4256 40 20.3799C40 9.33419 31.0457 0.379883 20 0.379883C8.9543 0.379883 0 9.33419 0 20.3799ZM16.3333 29.5466L16.6736 24.4484L16.6733 24.4482L25.9474 16.079C26.3545 15.7178 25.8585 15.5417 25.3182 15.8693L13.8727 23.0901L8.9289 21.5471C7.86125 21.2202 7.85358 20.4865 9.1686 19.9591L28.4336 12.5306C29.3135 12.1311 30.1627 12.7419 29.8268 14.0886L26.546 29.5491C26.3169 30.6478 25.6531 30.9105 24.7333 30.403L19.7356 26.7107L17.3333 29.0465C17.3258 29.0539 17.3182 29.0613 17.3107 29.0686C17.042 29.3301 16.8198 29.5466 16.3333 29.5466Z" fill="white"/>
</svg>
