<svg width="41" height="40" viewBox="0 0 41 40" fill="none" xmlns="http://www.w3.org/2000/svg">
<path fill-rule="evenodd" clip-rule="evenodd" d="M0.561523 20C0.561523 31.0457 9.51583 40 20.5615 40C31.6072 40 40.5615 31.0457 40.5615 20C40.5615 8.9543 31.6072 0 20.5615 0C9.51583 0 0.561523 8.9543 0.561523 20ZM33.1133 19.2346C33.1107 25.7902 27.7778 31.1244 21.2208 31.1271H21.2158C19.2254 31.1264 17.2697 30.627 15.5326 29.6795L9.22819 31.3333L10.9154 25.1707C9.87463 23.3671 9.32701 21.3212 9.3279 19.2252C9.33051 12.6681 14.6655 7.33333 21.2206 7.33333C24.4021 7.33471 27.388 8.57322 29.6334 10.8212C31.8787 13.069 33.1146 16.0569 33.1133 19.2346Z" fill="white" fill-opacity="0.6"/>
<path fill-rule="evenodd" clip-rule="evenodd" d="M12.0837 28.508L15.8248 27.5266L16.1858 27.7408C17.7034 28.6414 19.4431 29.1179 21.2168 29.1186H21.2209C26.669 29.1186 31.1032 24.6843 31.1054 19.2339C31.1064 16.5927 30.0793 14.1092 28.213 12.2408C26.3468 10.3724 23.8649 9.34296 21.2247 9.34204C15.7724 9.34204 11.3381 13.7759 11.3359 19.2259C11.3352 21.0937 11.8578 22.9126 12.8472 24.4864L13.0823 24.8604L12.0837 28.508ZM26.8053 21.7951C27.0126 21.8952 27.1525 21.9629 27.2123 22.0626C27.2865 22.1865 27.2865 22.7815 27.039 23.4757C26.7913 24.1698 25.6042 24.8033 25.0332 24.8886C24.5213 24.9652 23.8734 24.9971 23.1616 24.7709C22.73 24.6339 22.1765 24.4511 21.4675 24.1449C18.6818 22.942 16.7991 20.242 16.4433 19.7317C16.4184 19.696 16.401 19.671 16.3913 19.658L16.3889 19.6548C16.2316 19.4449 15.1779 18.039 15.1779 16.584C15.1779 15.2152 15.8503 14.4978 16.1597 14.1675C16.1809 14.1449 16.2004 14.1241 16.2179 14.105C16.4903 13.8075 16.8122 13.7331 17.0103 13.7331C17.2084 13.7331 17.4067 13.735 17.5799 13.7437C17.6012 13.7447 17.6234 13.7446 17.6464 13.7445C17.8196 13.7435 18.0355 13.7422 18.2484 14.2538C18.3304 14.4506 18.4503 14.7425 18.5767 15.0503C18.8324 15.6728 19.1149 16.3606 19.1646 16.4602C19.2389 16.6089 19.2884 16.7824 19.1894 16.9808C19.1745 17.0106 19.1608 17.0386 19.1476 17.0655C19.0732 17.2173 19.0185 17.3291 18.8923 17.4765C18.8426 17.5345 18.7913 17.597 18.74 17.6594C18.6377 17.7839 18.5355 17.9084 18.4465 17.9971C18.2977 18.1453 18.1429 18.3061 18.3162 18.6036C18.4896 18.9011 19.0859 19.8741 19.9693 20.6621C20.9189 21.5091 21.7443 21.8671 22.1626 22.0485C22.2443 22.084 22.3105 22.1127 22.359 22.137C22.6561 22.2858 22.8294 22.2609 23.0028 22.0626C23.1761 21.8643 23.7456 21.1949 23.9437 20.8974C24.1417 20.6001 24.3399 20.6496 24.6122 20.7487C24.8847 20.848 26.3456 21.5668 26.6428 21.7155C26.7008 21.7446 26.755 21.7708 26.8053 21.7951Z" fill="white" fill-opacity="0.6"/>
</svg>
