<svg width="40" height="41" viewBox="0 0 40 41" fill="none" xmlns="http://www.w3.org/2000/svg">
<path fill-rule="evenodd" clip-rule="evenodd" d="M20 0.379883C8.9543 0.379883 0 9.33419 0 20.3799C0 31.4256 8.9543 40.3799 20 40.3799C31.0457 40.3799 40 31.4256 40 20.3799C40 9.33419 31.0457 0.379883 20 0.379883ZM28.3346 13.5041C29.2526 13.756 29.9755 14.4981 30.2208 15.4407C30.6666 17.1488 30.6666 20.713 30.6666 20.713C30.6666 20.713 30.6666 24.277 30.2208 25.9853C29.9755 26.9278 29.2526 27.67 28.3346 27.922C26.6711 28.3796 20 28.3796 20 28.3796C20 28.3796 13.3288 28.3796 11.6652 27.922C10.7472 27.67 10.0243 26.9278 9.77899 25.9853C9.33329 24.277 9.33329 20.713 9.33329 20.713C9.33329 20.713 9.33329 17.1488 9.77899 15.4407C10.0243 14.4981 10.7472 13.756 11.6652 13.5041C13.3288 13.0463 20 13.0463 20 13.0463C20 13.0463 26.6711 13.0463 28.3346 13.5041Z" fill="white"/>
<path d="M18 24.3805V17.7139L23.3333 21.0473L18 24.3805Z" fill="white"/>
</svg>
