<svg width="32" height="32" viewBox="0 0 32 32" fill="none" xmlns="http://www.w3.org/2000/svg">
<path d="M30.9937 30.9937L30.9937 30.9937C31.3354 30.6519 31.3355 30.0981 30.9937 29.7563C30.9937 29.7563 30.9937 29.7563 30.9936 29.7563L22.0317 20.7944C23.8739 18.6685 25 15.9042 25 12.875C25 6.1891 19.5609 0.75 12.875 0.75C6.1891 0.75 0.75 6.1891 0.75 12.875C0.75 19.5609 6.1891 25 12.875 25C15.9043 25 18.6685 23.8739 20.7944 22.0317L29.7563 30.9937C29.9271 31.1645 30.1515 31.25 30.375 31.25C30.5986 31.25 30.8229 31.1644 30.9937 30.9937ZM12.875 23.25C7.15494 23.25 2.50004 18.5957 2.50004 12.875C2.50004 7.15437 7.15494 2.49998 12.875 2.49998C18.5951 2.49998 23.25 7.15431 23.25 12.875C23.25 18.5957 18.5951 23.25 12.875 23.25Z" fill="#081A3D" stroke="#081A3D" stroke-width="0.5"/>
</svg>
