<svg width="41" height="40" viewBox="0 0 41 40" fill="none" xmlns="http://www.w3.org/2000/svg">
<circle cx="20.9873" cy="20" r="20" fill="white"/>
<path d="M20.9873 20C21.6748 20 22.2636 19.755 22.7536 19.265C23.2427 18.7758 23.4873 18.1875 23.4873 17.5C23.4873 16.8125 23.2427 16.2238 22.7536 15.7337C22.2636 15.2446 21.6748 15 20.9873 15C20.2998 15 19.7115 15.2446 19.2223 15.7337C18.7323 16.2238 18.4873 16.8125 18.4873 17.5C18.4873 18.1875 18.7323 18.7758 19.2223 19.265C19.7115 19.755 20.2998 20 20.9873 20ZM20.9873 32.5C17.6331 29.6458 15.1281 26.9946 13.4723 24.5462C11.8156 22.0988 10.9873 19.8333 10.9873 17.75C10.9873 14.625 11.9927 12.1354 14.0036 10.2812C16.0136 8.42708 18.3415 7.5 20.9873 7.5C23.6331 7.5 25.9611 8.42708 27.9711 10.2812C29.9819 12.1354 30.9873 14.625 30.9873 17.75C30.9873 19.8333 30.1594 22.0988 28.5036 24.5462C26.8469 26.9946 24.3415 29.6458 20.9873 32.5Z" fill="#20C2FF"/>
</svg>
