<svg width="41" height="40" viewBox="0 0 41 40" fill="none" xmlns="http://www.w3.org/2000/svg">
<path fill-rule="evenodd" clip-rule="evenodd" d="M20.9873 40C9.94161 40 0.987305 31.0457 0.987305 20C0.987305 8.9543 9.94161 0 20.9873 0C32.033 0 40.9873 8.9543 40.9873 20C40.9873 31.0457 32.033 40 20.9873 40ZM21.266 18.8775C22.9036 18.8775 30.866 14.4 30.866 14.4L30.8788 13.6C30.8788 12.7168 30.162 12 29.2764 12H13.2556C12.3708 12 11.654 12.7168 11.654 13.6V14.3128C11.654 14.3128 19.7036 18.8775 21.266 18.8775ZM11.6668 16.8C11.666 16.8 19.7036 21.0775 21.266 21.0775C22.9788 21.0775 30.866 16.8 30.866 16.8L30.8788 26.4C30.8788 27.2832 30.162 28 29.2764 28H13.2556C12.3716 28 11.654 27.2832 11.654 26.4L11.6668 16.8Z" fill="white"/>
</svg>
