<svg width="41" height="40" viewBox="0 0 41 40" fill="none" xmlns="http://www.w3.org/2000/svg">
<path fill-rule="evenodd" clip-rule="evenodd" d="M20.9873 0C9.94161 0 0.987305 8.9543 0.987305 20C0.987305 31.0457 9.94161 40 20.9873 40C32.033 40 40.9873 31.0457 40.9873 20C40.9873 8.9543 32.033 0 20.9873 0ZM14.9771 10C15.0363 10.0469 15.0832 10.0469 15.1302 10.0408C15.373 10.0204 15.5812 10.0796 15.7159 10.302C15.7396 10.3406 15.7634 10.3791 15.7872 10.4176C16.0657 10.869 16.3447 11.3211 16.6098 11.7837C16.8017 12.1181 16.9848 12.4579 17.1681 12.7981C17.3025 13.0475 17.437 13.2972 17.5751 13.545C17.6286 13.6454 17.6954 13.74 17.7622 13.8346C17.8 13.8881 17.8377 13.9415 17.8731 13.996C17.9582 14.1315 18.0397 14.2707 18.1193 14.4065L18.1323 14.4286C18.3037 14.7531 18.2955 15.0797 18.0404 15.3389C17.7719 15.6134 17.4833 15.8735 17.1952 16.1331C17.0936 16.2247 16.992 16.3162 16.8914 16.4083C16.7664 16.523 16.6395 16.636 16.5126 16.7488C16.3124 16.927 16.1124 17.105 15.92 17.2899C15.6751 17.5267 15.6118 17.8226 15.7771 18.1348C15.7924 18.1635 15.8077 18.1921 15.823 18.2208C16.0627 18.6697 16.3021 19.118 16.5649 19.5573C17.6016 21.2859 18.9261 22.7553 20.5996 23.888C21.2446 24.3268 21.916 24.7288 22.5936 25.1125C23.2323 25.4737 23.4813 25.4125 23.9773 24.8594C24.2392 24.5686 24.4958 24.275 24.7528 23.9811C24.9484 23.7575 25.1441 23.5336 25.3426 23.3104C25.4528 23.1859 25.5854 23.0757 25.714 22.9696C25.9752 22.7492 26.261 22.7247 26.561 22.8757C26.5798 22.8849 26.5989 22.8939 26.6181 22.9029C26.6842 22.9339 26.751 22.9652 26.8079 23.0063C27.3401 23.3871 27.9142 23.693 28.4877 23.9985C28.7718 24.1499 29.0559 24.3012 29.3345 24.4615C29.6217 24.6265 29.904 24.799 30.1855 24.9711C30.346 25.0692 30.5063 25.1672 30.6672 25.2635C30.9059 25.4043 31.0019 25.6105 30.9855 25.8941C30.9406 26.6921 30.808 27.4758 30.3447 28.1493C30.1508 28.4289 29.8753 28.6738 29.5978 28.8717C28.8284 29.4105 27.9692 29.7432 27.0549 29.9473C26.2242 30.133 25.3956 30.0656 24.5997 29.8167C23.063 29.3432 21.5486 28.8003 20.1547 27.9779C18.8894 27.2289 17.7384 26.3248 16.673 25.3145C15.324 24.0309 14.1199 22.6308 13.1465 21.0369C12.5118 20.0022 12.0587 18.8879 11.6485 17.7512C11.3995 17.0654 11.1546 16.3858 11.0444 15.6593C10.9178 14.8368 11.0056 14.045 11.2689 13.2654C11.5056 12.5613 11.8015 11.8878 12.2485 11.2857C12.5995 10.8184 13.0383 10.4755 13.6056 10.3225C13.9262 10.2376 14.2488 10.165 14.5713 10.0923C14.7066 10.0619 14.842 10.0314 14.9771 10Z" fill="white"/>
</svg>
